<svg xmlns="http://www.w3.org/2000/svg" viewBox="0 0 1200 630" width="1200" height="630">
  <defs>
    <radialGradient id="glow1" cx="20%" cy="30%" r="50%">
      <stop offset="0%" stop-color="#ff00aa" stop-opacity="0.15"/>
      <stop offset="100%" stop-color="#0a0a1a" stop-opacity="0"/>
    </radialGradient>
    <radialGradient id="glow2" cx="80%" cy="70%" r="50%">
      <stop offset="0%" stop-color="#00ffcc" stop-opacity="0.12"/>
      <stop offset="100%" stop-color="#0a0a1a" stop-opacity="0"/>
    </radialGradient>
    <radialGradient id="glow3" cx="50%" cy="10%" r="40%">
      <stop offset="0%" stop-color="#9900ff" stop-opacity="0.10"/>
      <stop offset="100%" stop-color="#0a0a1a" stop-opacity="0"/>
    </radialGradient>
  </defs>
  <rect width="1200" height="630" fill="#0a0a1a"/>
  <!-- Grid lines -->
  <g opacity="0.04" stroke="#ffffff" stroke-width="1">
    <line x1="0" y1="60" x2="1200" y2="60"/>
    <line x1="0" y1="120" x2="1200" y2="120"/>
    <line x1="0" y1="180" x2="1200" y2="180"/>
    <line x1="0" y1="240" x2="1200" y2="240"/>
    <line x1="0" y1="300" x2="1200" y2="300"/>
    <line x1="0" y1="360" x2="1200" y2="360"/>
    <line x1="0" y1="420" x2="1200" y2="420"/>
    <line x1="0" y1="480" x2="1200" y2="480"/>
    <line x1="0" y1="540" x2="1200" y2="540"/>
    <line x1="60" y1="0" x2="60" y2="630"/>
    <line x1="120" y1="0" x2="120" y2="630"/>
    <line x1="180" y1="0" x2="180" y2="630"/>
    <line x1="240" y1="0" x2="240" y2="630"/>
    <line x1="300" y1="0" x2="300" y2="630"/>
    <line x1="360" y1="0" x2="360" y2="630"/>
    <line x1="420" y1="0" x2="420" y2="630"/>
    <line x1="480" y1="0" x2="480" y2="630"/>
    <line x1="540" y1="0" x2="540" y2="630"/>
    <line x1="600" y1="0" x2="600" y2="630"/>
    <line x1="660" y1="0" x2="660" y2="630"/>
    <line x1="720" y1="0" x2="720" y2="630"/>
    <line x1="780" y1="0" x2="780" y2="630"/>
    <line x1="840" y1="0" x2="840" y2="630"/>
    <line x1="900" y1="0" x2="900" y2="630"/>
    <line x1="960" y1="0" x2="960" y2="630"/>
    <line x1="1020" y1="0" x2="1020" y2="630"/>
    <line x1="1080" y1="0" x2="1080" y2="630"/>
    <line x1="1140" y1="0" x2="1140" y2="630"/>
  </g>
  <!-- Glow orbs -->
  <rect width="1200" height="630" fill="url(#glow1)"/>
  <rect width="1200" height="630" fill="url(#glow2)"/>
  <rect width="1200" height="630" fill="url(#glow3)"/>
  <!-- Sample NFT preview (4x4 grid) -->
  <g transform="translate(100, 115)">
    <rect width="400" height="400" fill="#0d0d22" rx="12"/>
    <text x="200" y="32" text-anchor="middle" fill="#ff00aa" font-size="16" font-family="monospace">BLOCK #500000</text>
    <g transform="translate(20, 45)">
      <rect x="0" y="0" width="80" height="80" rx="4" fill="#ff00aa" opacity="0.72"/>
      <rect x="85" y="0" width="80" height="80" rx="4" fill="#00ffcc" opacity="0.58"/>
      <rect x="170" y="0" width="80" height="80" rx="4" fill="#9900ff" opacity="0.81"/>
      <rect x="255" y="0" width="80" height="80" rx="4" fill="#00aaff" opacity="0.64"/>
      <rect x="0" y="85" width="80" height="80" rx="4" fill="#ffcc00" opacity="0.55"/>
      <rect x="85" y="85" width="80" height="80" rx="4" fill="#ff0066" opacity="0.76"/>
      <rect x="170" y="85" width="80" height="80" rx="4" fill="#00ff66" opacity="0.69"/>
      <rect x="255" y="85" width="80" height="80" rx="4" fill="#3300ff" opacity="0.88"/>
      <rect x="0" y="170" width="80" height="80" rx="4" fill="#ff3366" opacity="0.70"/>
      <rect x="85" y="170" width="80" height="80" rx="4" fill="#6600ff" opacity="0.91"/>
      <rect x="170" y="170" width="80" height="80" rx="4" fill="#00ccff" opacity="0.62"/>
      <rect x="255" y="170" width="80" height="80" rx="4" fill="#ff9900" opacity="0.83"/>
      <rect x="0" y="255" width="80" height="80" rx="4" fill="#cc00ff" opacity="0.79"/>
      <rect x="85" y="255" width="80" height="80" rx="4" fill="#33ff00" opacity="0.65"/>
      <rect x="170" y="255" width="80" height="80" rx="4" fill="#ff0033" opacity="0.94"/>
      <rect x="255" y="255" width="80" height="80" rx="4" fill="#ff00aa" opacity="0.73"/>
    </g>
    <text x="200" y="388" text-anchor="middle" fill="#666" font-size="12" font-family="monospace">0000000000000003...</text>
  </g>
  <!-- Title and tagline -->
  <text x="660" y="240" text-anchor="middle" fill="#ff00aa" font-size="72" font-family="monospace" font-weight="700" filter="url(#textGlow)">BlockMaps</text>
  <text x="660" y="310" text-anchor="middle" fill="#e8e8f0" font-size="28" font-family="monospace">On-Chain Bitcoin Block NFTs</text>
  <text x="660" y="370" text-anchor="middle" fill="#8b8b9e" font-size="18" font-family="monospace">Mint any block. Own a piece of Bitcoin history.</text>
  <!-- Accent bar -->
  <rect x="560" y="400" width="200" height="3" rx="2" fill="#ff00aa" opacity="0.8"/>
  <!-- Built on OPNet label -->
  <text x="660" y="450" text-anchor="middle" fill="#5a5a6e" font-size="14" font-family="monospace">Built on OPNet Testnet</text>
</svg>
